<svg width="34" height="38" viewBox="0 0 34 38" fill="none" xmlns="http://www.w3.org/2000/svg">
<path d="M0.73335 15.7984C1.12135 15.8771 2.84402 16.0171 3.20002 16.1611C7.18668 17.7811 11.1733 19.4011 15.16 21.0198C15.292 16.7438 15.0027 12.4531 14.296 8.23311C13.8387 5.50644 13.224 2.61443 14.2667 0.053093C16.2587 4.47043 17.4187 9.25977 17.6694 14.0971C17.784 16.3144 18.2853 19.2371 20.492 19.4931C21.66 19.6278 22.7174 18.8531 23.6374 18.1198C26.888 15.5291 30.1387 12.9371 33.3893 10.3464C34.5573 11.6358 33.1187 13.5878 31.7747 14.6931C29.4 16.6478 27.0253 18.6011 24.6507 20.5558C22.52 22.3078 19.5893 24.4544 19.0907 27.3344C18.9027 28.4198 19.016 37.1478 19.3907 37.6904C16.792 33.9278 18.0427 29.6291 16.2787 26.1184C14.7867 23.1491 9.89203 21.1998 7.01603 20.1291C4.53736 19.2064 1.65868 18.0251 0.294678 15.6451C2.49601 14.0638 5.0347 13.5131 7.18003 11.2851C9.84803 8.51443 11.804 5.05042 12.7347 1.31442C12.0667 3.09442 12.1933 5.0691 11.7853 6.92643C10.8227 11.3051 6.54401 14.7145 2.06001 14.6771L0.73335 15.7984Z" fill="#100F0D"/>
<path d="M20.9226 6.96776C21.564 7.55042 22.2186 8.14243 23.004 8.50776C23.644 8.80643 24.3453 8.94243 25.0386 9.07576C26.848 9.42376 28.6573 9.77174 30.4666 10.1211C25.2853 10.1837 22.4893 4.39174 17.832 4.01974C18.768 5.06641 19.868 6.01042 20.9226 6.96776Z" fill="#100F0D"/>
</svg>
