<svg width="21" height="19" viewBox="0 0 21 19" fill="none" xmlns="http://www.w3.org/2000/svg">
<path d="M9.54894 9.13797C5.84494 10.1486 1.42628 14.71 4.81961 17.946C6.54628 19.5926 8.02629 18.35 9.82629 17.7113C12.033 16.93 13.1596 18.5367 15.305 18.422C16.7316 18.346 18.0503 17.8606 18.7183 16.5086C20.6489 12.6033 14.3343 9.18998 11.2463 8.94598C10.7223 8.90465 10.1449 8.97531 9.54894 9.13797Z" fill="#100F0D"/>
<path d="M0.71431 10.4554C0.0263096 9.80605 -0.232364 8.68603 0.24097 7.86603C1.0503 6.46736 2.68367 7.08472 3.50366 8.05805C3.89033 8.51672 4.213 9.06339 4.23967 9.66206C4.26633 10.2607 3.91964 10.9047 3.3423 11.0634C3.3423 11.0634 1.40231 11.1061 0.71431 10.4554Z" fill="#100F0D"/>
<path d="M3.91696 5.05141C3.82363 4.25674 3.80231 3.41276 4.16097 2.69675C4.51964 1.98209 5.36631 1.4554 6.12764 1.70473C6.79164 1.92206 7.16362 2.61806 7.41029 3.27273C7.65696 3.9274 7.84762 4.60475 7.97696 5.29142C8.11829 6.03942 8.18098 6.85009 7.83565 7.52742C6.36098 10.4274 4.09296 6.57141 3.91696 5.05141Z" fill="#100F0D"/>
<path d="M11.7037 6.44864C10.701 5.39797 10.1797 3.90598 10.3077 2.45932C10.377 1.68732 10.6517 0.891296 11.2557 0.405963C13.8237 -1.65137 15.285 4.70597 13.8863 6.24864C13.2743 6.92331 11.7037 6.44864 11.7037 6.44864Z" fill="#100F0D"/>
<path d="M16.3037 8.3168C15.5663 7.1568 16.105 4.97013 16.9863 4.01147C17.3663 3.59813 17.8957 3.25947 18.4543 3.31814C19.2383 3.40214 19.733 4.20615 19.9557 4.96215C20.4197 6.53415 20.0223 8.99946 17.9317 9.07146C17.1277 9.09946 16.6077 8.79547 16.3037 8.3168Z" fill="#100F0D"/>
</svg>
