<svg width="29" height="29" viewBox="0 0 29 29" fill="none" xmlns="http://www.w3.org/2000/svg">
<path d="M13.9373 13.7026C13.4947 15.4626 12.6107 17.1346 11.364 18.5652C9.88133 20.2666 7.87468 21.6625 6.90801 23.6305C5.94268 25.5999 6.68401 28.4839 9.07201 28.9092C11.4747 29.3386 13.4293 27.0852 15.8453 26.7185C17.3653 26.4879 18.88 27.0292 20.3893 27.3106C21.8987 27.5906 23.7333 27.5025 24.6333 26.3986C25.5787 25.2399 24.9493 23.5412 23.7907 22.5426C22.6333 21.5439 21.0747 21.0092 19.6987 20.2559C16.8893 18.7185 14.8093 16.1799 14.036 13.3479L13.9373 13.7026Z" fill="#100F0D"/>
<path d="M1.40931 18.276C0.449312 17.004 1.17331 15.2986 0.94398 13.7839C0.729313 12.3679 -0.318701 10.864 0.495965 9.62929C0.167965 10.3586 0.750637 11.1746 1.46797 11.6386C2.18664 12.1026 3.05862 12.3733 3.71729 12.9013C4.80795 13.776 5.09729 15.1639 5.32396 16.4479C5.53196 17.6173 6.11063 18.8253 4.69063 19.424C3.67996 19.8506 1.95864 19.0066 1.40931 18.276Z" fill="#100F0D"/>
<path d="M9.11726 8.91713C9.02126 7.7118 9.3826 6.5198 9.52527 5.31846C9.72127 3.67313 9.50126 1.99047 8.8866 0.426471C10.0239 2.07714 12.168 3.03446 13.3093 4.68246C14.4186 6.28379 14.2573 8.44649 13.1279 10.0078C11.4799 12.2905 9.32926 11.5985 9.11726 8.91713Z" fill="#100F0D"/>
<path d="M17.4013 2.42268C17.8187 1.78801 18.2333 0.870679 17.5693 0.426679C19.428 3.33201 21.352 6.54134 20.704 9.82534C20.5333 10.696 20.116 11.6067 19.2427 12.0414C14.1933 14.548 16.452 3.87201 17.4013 2.42268Z" fill="#100F0D"/>
<path d="M23.7467 16.7292C23.268 16.3186 23.46 15.6186 23.7 15.0692C24.5467 13.1279 25.5827 11.2506 26.7907 9.46524C28.1547 10.7612 29.18 12.4839 28.9414 14.2386C28.704 15.9932 26.828 17.6146 24.8507 17.3146C24.5573 17.2692 24.2493 17.1719 24.0853 16.9532L23.7467 16.7292Z" fill="#100F0D"/>
</svg>
