<svg width="25" height="30" viewBox="0 0 25 30" fill="none" xmlns="http://www.w3.org/2000/svg">
<path d="M22.288 1.00899C22.2719 0.931652 22.2531 0.854321 22.236 0.776987C21.6031 0.827654 19.6364 0.870314 19.0016 0.902313C19.3297 0.886312 23.9803 25.1703 11.5151 23.2943C9.23959 22.9516 7.14999 21.4703 6.13119 19.4063C5.49319 18.1156 5.27292 16.6583 5.18279 15.221C4.94999 11.4956 5.55052 7.72096 6.92759 4.25029C7.43545 2.97029 7.61399 1.87964 7.56825 1.06231C6.84265 0.794306 6.12599 0.506306 5.41972 0.195641C4.97079 0.662306 4.48692 1.37699 3.99895 2.40899C2.15572 6.30232 0.602588 10.5183 0.361961 14.8556C0.0578011 20.3303 2.38644 26.329 7.32079 28.721C9.05785 29.5636 11.0021 29.9116 12.9317 29.9663C15.1568 30.0276 17.4557 29.6863 19.3593 28.533C23.6531 25.9343 24.6885 20.1596 24.4531 15.145C24.2292 10.3783 23.2568 5.68099 22.288 1.00899Z" fill="#100F0D"/>
</svg>
