<svg width="26" height="32" viewBox="0 0 26 32" fill="none" xmlns="http://www.w3.org/2000/svg">
<path d="M15.272 24.0597C15.0854 23.7118 14.8174 23.3946 14.7414 23.0066C14.668 22.6228 14.7934 22.2332 14.9067 21.8613C16.868 15.4561 15.8533 8.56543 14.8213 1.94677C16.2933 1.53317 17.7133 2.7025 18.716 3.85717C21.8667 7.4853 24.088 11.916 25.1093 16.6118C25.78 19.693 25.9133 23.0253 24.6107 25.8973C23.6413 28.0321 20.14 31.7665 17.3574 30.5477C14.5147 29.3025 16.444 26.2468 15.272 24.0597Z" fill="#100F0D"/>
<path d="M1.88801 27.8263C0.57334 25.4962 0.277329 22.7306 0.293329 20.0544C0.338662 12.3732 3.30266 4.07577 10.0253 0.358574C9.31999 3.55444 8.60933 6.78258 8.61066 10.056C8.61333 13.3306 9.38533 16.6998 11.3787 19.2972C12.1133 20.2534 13.064 21.3024 12.8147 22.4826C12.4987 23.9784 10.3413 25.0544 10.9573 26.4534C11.456 27.5867 13.5787 27.9263 13.2227 29.1118C13.14 29.3919 12.916 29.605 12.692 29.7894C9.04799 32.7894 4.20267 31.9263 1.88801 27.8263Z" fill="#100F0D"/>
</svg>
